<svg xmlns="http://www.w3.org/2000/svg" viewBox="0 0 600 600">
  <defs>
    <linearGradient id="buildingGradient" x1="0%" y1="0%" x2="0%" y2="100%">
      <stop offset="0%" style="stop-color:#16a34a;stop-opacity:1" />
      <stop offset="100%" style="stop-color:#15803d;stop-opacity:1" />
    </linearGradient>
    <linearGradient id="leafGradient" x1="0%" y1="0%" x2="100%" y2="100%">
      <stop offset="0%" style="stop-color:#a3e635;stop-opacity:1" />
      <stop offset="100%" style="stop-color:#84cc16;stop-opacity:1" />
    </linearGradient>
  </defs>
  
  <!-- Circular border -->
  <circle cx="300" cy="300" r="240" fill="none" stroke="#15803d" stroke-width="8"/>
  
  <!-- Buildings (simplified skyline) -->
  <g transform="translate(300, 320)" fill="url(#buildingGradient)">
    <rect x="-60" y="-80" width="35" height="80" rx="2"/>
    <rect x="-20" y="-100" width="40" height="100" rx="2"/>
    <rect x="25" y="-75" width="35" height="75" rx="2"/>
    <rect x="-95" y="-60" width="30" height="60" rx="2"/>
    <rect x="65" y="-65" width="30" height="65" rx="2"/>
  </g>
  
  <!-- Roots at bottom -->
  <g transform="translate(300, 330)" stroke="#92400e" stroke-width="3" fill="none">
    <path d="M-40,0 Q-60,20 -80,40"/>
    <path d="M-20,0 Q-30,25 -40,50"/>
    <path d="M0,0 Q0,30 0,60"/>
    <path d="M20,0 Q30,25 40,50"/>
    <path d="M40,0 Q60,20 80,40"/>
  </g>
  
  <!-- Plant/leaves on top -->
  <g transform="translate(300, 160)">
    <!-- Center stem -->
    <line x1="0" y1="0" x2="0" y2="80" stroke="#15803d" stroke-width="4"/>
    
    <!-- Left leaves -->
    <ellipse cx="-50" cy="30" rx="35" ry="20" fill="url(#leafGradient)" transform="rotate(-30 -50 30)"/>
    <ellipse cx="-65" cy="60" rx="40" ry="22" fill="url(#leafGradient)" transform="rotate(-40 -65 60)"/>
    <ellipse cx="-40" cy="0" rx="30" ry="18" fill="url(#leafGradient)" transform="rotate(-20 -40 0)"/>
    
    <!-- Right leaves -->
    <ellipse cx="50" cy="30" rx="35" ry="20" fill="url(#leafGradient)" transform="rotate(30 50 30)"/>
    <ellipse cx="65" cy="60" rx="40" ry="22" fill="url(#leafGradient)" transform="rotate(40 65 60)"/>
    <ellipse cx="40" cy="0" rx="30" ry="18" fill="url(#leafGradient)" transform="rotate(20 40 0)"/>
    
    <!-- Top leaves -->
    <ellipse cx="-20" cy="-15" rx="28" ry="16" fill="url(#leafGradient)" transform="rotate(-10 -20 -15)"/>
    <ellipse cx="20" cy="-15" rx="28" ry="16" fill="url(#leafGradient)" transform="rotate(10 20 -15)"/>
    <ellipse cx="0" cy="-25" rx="32" ry="18" fill="url(#leafGradient)"/>
  </g>
  
  <!-- Text -->
  <text x="300" y="500" font-family="Arial, sans-serif" font-size="48" font-weight="bold" text-anchor="middle" fill="#15803d">
    URBAN<tspan fill="#84cc16">ROOTS</tspan>
  </text>
  <text x="300" y="535" font-family="Arial, sans-serif" font-size="24" text-anchor="middle" fill="#92400e" letter-spacing="8">
    FARMS
  </text>
</svg>
